<svg width="67" height="71" viewBox="0 0 67 71" fill="none" xmlns="http://www.w3.org/2000/svg">
<path fill-rule="evenodd" clip-rule="evenodd" d="M11.1667 4.72045C7.46635 4.72045 4.46667 7.89057 4.46667 11.8011V23.6023H0V11.8011C0 5.28356 4.9995 0 11.1667 0H22.3333V4.72045H11.1667ZM55.8333 4.72045H44.6667V0H55.8333C62.0005 0 67 5.28356 67 11.8011V23.6023H62.5333V11.8011C62.5333 7.89057 59.5335 4.72045 55.8333 4.72045ZM22.3333 28.3227H17.8667V23.6023H22.3333V28.3227ZM49.1333 28.3227H44.6667V23.6023H49.1333V28.3227ZM21.8867 41.068C27.6933 49.2499 39.3067 49.2499 45.1133 41.068L48.6867 43.9002C41.0933 54.6001 25.9067 54.6001 18.3133 43.9002L21.8867 41.068ZM0 59.0057V47.2045H4.46667V59.0057C4.46667 62.9161 7.46635 66.0864 11.1667 66.0864H22.3333V70.8068H11.1667C4.9995 70.8068 0 65.5232 0 59.0057ZM67 47.2045V59.0057C67 65.5232 62.0005 70.8068 55.8333 70.8068H44.6667V66.0864H55.8333C59.5335 66.0864 62.5333 62.9161 62.5333 59.0057V47.2045H67Z" fill="black"/>
</svg>
