<svg width="37" height="50" viewBox="0 0 37 50" fill="none" xmlns="http://www.w3.org/2000/svg">
<path d="M35.4447 36.2501L31.2885 29.4376V19.7813C31.4363 17.2138 30.8544 14.6569 29.6102 12.4062C28.3659 10.1555 26.5101 8.30289 24.2572 7.06256C24.288 6.66732 24.288 6.27029 24.2572 5.87506C24.233 5.0788 24.052 4.29513 23.7247 3.56884C23.3974 2.84255 22.9302 2.18788 22.3498 1.64227C21.7693 1.09665 21.0871 0.670776 20.3419 0.388996C19.5968 0.107215 18.8034 -0.0249488 18.0072 5.82088e-05C17.211 -0.0249488 16.4176 0.107215 15.6725 0.388996C14.9274 0.670776 14.2451 1.09665 13.6646 1.64227C13.0842 2.18788 12.617 2.84255 12.2897 3.56884C11.9624 4.29513 11.7815 5.0788 11.7572 5.87506C11.7112 6.26955 11.7112 6.66806 11.7572 7.06256C9.50434 8.30289 7.6485 10.1555 6.40425 12.4062C5.16 14.6569 4.57815 17.2138 4.72596 19.7813V29.4376L0.569709 36.2501C0.210188 36.8406 0.013836 37.516 0.000704814 38.2072C-0.0124264 38.8984 0.158134 39.5808 0.494967 40.1845C0.8318 40.7883 1.32284 41.2918 1.91793 41.6437C2.51303 41.9956 3.19086 42.1833 3.88221 42.1876H9.41346C9.55803 44.3482 10.5338 46.3688 12.1361 47.8254C13.7384 49.2821 15.8426 50.0614 18.0072 50.0001C20.1718 50.0614 22.276 49.2821 23.8783 47.8254C25.4806 46.3688 26.4564 44.3482 26.601 42.1876H32.1322C32.8236 42.1833 33.5014 41.9956 34.0965 41.6437C34.6916 41.2918 35.1826 40.7883 35.5194 40.1845C35.8563 39.5808 36.0268 38.8984 36.0137 38.2072C36.0006 37.516 35.8042 36.8406 35.4447 36.2501ZM15.6635 5.87506C15.719 5.30556 15.9955 4.78051 16.4336 4.41248C16.8718 4.04444 17.4367 3.86273 18.0072 3.90631C18.5777 3.86273 19.1426 4.04444 19.5808 4.41248C20.0189 4.78051 20.2954 5.30556 20.351 5.87506C19.5705 5.82618 18.7877 5.82618 18.0072 5.87506C17.2267 5.82535 16.4439 5.82535 15.6635 5.87506ZM18.0072 46.0938C16.878 46.1506 15.7688 45.7803 14.9003 45.0565C14.0317 44.3327 13.4675 43.3085 13.3197 42.1876H22.6947C22.547 43.3085 21.9827 44.3327 21.1141 45.0565C20.2456 45.7803 19.1364 46.1506 18.0072 46.0938ZM3.88221 38.2813L8.06971 31.5001L8.63221 30.5313V19.7813C8.6247 17.441 9.27435 15.1456 10.5072 13.1563C11.3579 11.9904 12.4954 11.0642 13.8095 10.4674C15.1235 9.87058 16.5695 9.62348 18.0072 9.75006C19.4449 9.62348 20.8909 9.87058 22.2049 10.4674C23.519 11.0642 24.6565 11.9904 25.5072 13.1563C26.7401 15.1456 27.3897 17.441 27.3822 19.7813V30.5313L27.9447 31.5001L32.1322 38.2813H3.88221Z" fill="black"/>
</svg>
