<svg width="50" height="50" viewBox="0 0 50 50" fill="none" xmlns="http://www.w3.org/2000/svg">
<path d="M25 0C14.6445 0 6.25 8.39453 6.25 18.75C6.25 23.1859 8.20469 27.0867 10.368 30.4688L23.725 49.3406C24.018 49.7547 24.4937 50 25 50C25.5063 50 25.982 49.7547 26.275 49.3406L39.632 30.4688C41.6992 27.6859 43.75 23.1859 43.75 18.75C43.75 8.39453 35.3555 0 25 0ZM37.568 30.4688H37.5602L25 47.6562L12.4398 30.4688H12.432C10.5227 27.7102 7.8125 23.2805 7.8125 18.75C7.8125 9.25781 15.5078 1.5625 25 1.5625C34.4922 1.5625 42.1875 9.25781 42.1875 18.75C42.1875 23.2805 39.282 27.9539 37.568 30.4688Z" fill="#231F20"/>
<path d="M25 10.9375C20.6852 10.9375 17.1875 14.4359 17.1875 18.75C17.1875 23.0641 20.6852 26.5625 25 26.5625C29.3148 26.5625 32.8125 23.0641 32.8125 18.75C32.8125 14.4359 29.3148 10.9375 25 10.9375ZM25 25C21.5484 25 18.75 22.2016 18.75 18.75C18.75 15.2984 21.5484 12.5 25 12.5C28.4516 12.5 31.25 15.2984 31.25 18.75C31.25 22.2016 28.4516 25 25 25Z" fill="#231F20"/>
<path d="M25 7.8125C18.9594 7.8125 14.0625 12.7094 14.0625 18.75C14.0625 24.7906 18.9594 29.6875 25 29.6875C31.0406 29.6875 35.9375 24.7906 35.9375 18.75C35.9375 12.7094 31.0406 7.8125 25 7.8125ZM25 28.125C19.8227 28.125 15.625 23.9273 15.625 18.75C15.625 13.5727 19.8227 9.375 25 9.375C30.1773 9.375 34.375 13.5727 34.375 18.75C34.375 23.9273 30.1773 28.125 25 28.125Z" fill="#231F20"/>
</svg>
